<svg width="354" height="354" viewBox="0 0 354 354" fill="none" xmlns="http://www.w3.org/2000/svg">
<g clip-path="url(#clip0_449_5249)">
<circle cx="177" cy="177" r="177" fill="#2B80FF" fill-opacity="0.28"/>
<g filter="url(#filter1_f_449_5249)">
<circle cx="15.5" cy="56.5" r="191.5" fill="white" fill-opacity="0.49"/>
</g>
<path d="M143.425 114.544H153.143V195H141.052V137.596H122.633V128.669L124.441 128.556C130.242 128.179 134.573 126.974 137.436 124.94C140.374 122.831 142.37 119.365 143.425 114.544ZM197.218 142.342C205.731 142.342 212.436 144.903 217.332 150.026C222.229 155.299 224.677 161.74 224.677 169.349C224.677 177.485 222.041 184.077 216.767 189.124C211.419 194.247 204.488 196.808 195.975 196.808C188.819 196.808 182.717 194.925 177.669 191.158C169.458 184.755 165.352 172.852 165.352 155.45C165.352 141.965 167.989 131.494 173.262 124.036C178.611 116.503 186.257 112.736 196.201 112.736C203.659 112.736 209.799 114.695 214.62 118.612C219.442 122.454 222.417 127.84 223.547 134.771H211.908C211.155 130.854 209.422 127.878 206.71 125.844C203.998 123.735 200.533 122.68 196.314 122.68C183.884 122.68 177.443 132.812 176.991 153.077C179.176 149.762 182.076 147.163 185.692 145.28C189.308 143.321 193.15 142.342 197.218 142.342ZM183.997 181.779C187.011 184.943 191.003 186.525 195.975 186.525C200.872 186.525 204.865 184.943 207.953 181.779C211.042 178.54 212.586 174.434 212.586 169.462C212.586 164.49 211.042 160.347 207.953 157.032C204.865 153.868 200.872 152.286 195.975 152.286C191.003 152.286 187.011 153.868 183.997 157.032C180.833 160.196 179.251 164.339 179.251 169.462C179.251 174.509 180.833 178.615 183.997 181.779Z" fill="white"/>
<path d="M119.66 218.336H132.442V220.448H127.25V234H124.852V220.448H119.66V218.336ZM141.218 232.636C140.176 233.721 138.82 234.264 137.148 234.264C135.476 234.264 134.119 233.721 133.078 232.636C132.036 231.551 131.516 230.113 131.516 228.324C131.516 226.52 132.036 225.075 133.078 223.99C134.104 222.919 135.461 222.384 137.148 222.384C138.834 222.384 140.191 222.919 141.218 223.99C142.244 225.061 142.758 226.505 142.758 228.324C142.758 230.128 142.244 231.565 141.218 232.636ZM134.706 231.294C135.307 232.013 136.121 232.372 137.148 232.372C138.174 232.372 138.981 232.013 139.568 231.294C140.169 230.575 140.47 229.585 140.47 228.324C140.47 227.063 140.169 226.073 139.568 225.354C138.981 224.635 138.174 224.276 137.148 224.276C136.121 224.276 135.307 224.635 134.706 225.354C134.104 226.073 133.804 227.063 133.804 228.324C133.804 229.585 134.104 230.575 134.706 231.294ZM149.905 222.648V224.452H147.617V231.272C147.617 231.609 147.712 231.859 147.903 232.02C148.108 232.167 148.446 232.24 148.915 232.24H149.905V234C149.421 234.044 148.974 234.066 148.563 234.066C147.492 234.066 146.7 233.861 146.187 233.45C145.674 233.039 145.417 232.379 145.417 231.47V224.452H143.591V222.648H145.417V219.392H147.617V222.648H149.905ZM161.791 232.306H162.407V234C162.085 234.044 161.725 234.066 161.329 234.066C160.625 234.066 160.097 233.941 159.745 233.692C159.408 233.428 159.203 233.017 159.129 232.46C158.367 233.663 157.135 234.264 155.433 234.264C154.187 234.264 153.197 233.971 152.463 233.384C151.745 232.783 151.385 231.954 151.385 230.898C151.385 228.845 152.808 227.671 155.653 227.378L157.325 227.202C157.912 227.129 158.337 226.982 158.601 226.762C158.88 226.527 159.019 226.197 159.019 225.772C159.019 225.2 158.836 224.789 158.469 224.54C158.117 224.276 157.523 224.144 156.687 224.144C155.778 224.144 155.125 224.298 154.729 224.606C154.333 224.899 154.106 225.427 154.047 226.19H151.869C152.031 223.653 153.637 222.384 156.687 222.384C159.679 222.384 161.175 223.499 161.175 225.728V231.734C161.175 232.115 161.381 232.306 161.791 232.306ZM155.763 232.548C156.702 232.548 157.479 232.284 158.095 231.756C158.711 231.228 159.019 230.48 159.019 229.512V228.324C158.741 228.559 158.271 228.713 157.611 228.786L156.027 228.962C155.177 229.065 154.568 229.27 154.201 229.578C153.835 229.871 153.651 230.289 153.651 230.832C153.651 231.375 153.827 231.8 154.179 232.108C154.546 232.401 155.074 232.548 155.763 232.548ZM166.415 234H164.215V218.336H166.415V234ZM188.241 234H185.755L184.215 229.93H177.175L175.657 234H173.215L179.331 218.336H182.037L188.241 234ZM178.253 227.026L177.923 227.884H183.445L183.115 227.026C182.337 225.09 181.523 222.949 180.673 220.602C179.661 223.301 178.854 225.442 178.253 227.026ZM194.74 234.264C193.126 234.264 191.821 233.721 190.824 232.636C189.826 231.551 189.328 230.113 189.328 228.324C189.328 226.52 189.826 225.075 190.824 223.99C191.806 222.919 193.112 222.384 194.74 222.384C196.133 222.384 197.277 222.765 198.172 223.528C199.081 224.291 199.624 225.317 199.8 226.608H197.556C197.409 225.86 197.079 225.288 196.566 224.892C196.067 224.496 195.458 224.298 194.74 224.298C193.786 224.298 193.024 224.65 192.452 225.354C191.894 226.043 191.616 227.033 191.616 228.324C191.616 229.615 191.894 230.612 192.452 231.316C193.024 232.005 193.786 232.35 194.74 232.35C195.473 232.35 196.096 232.145 196.61 231.734C197.123 231.323 197.446 230.729 197.578 229.952H199.822C199.646 231.272 199.096 232.321 198.172 233.098C197.248 233.875 196.104 234.264 194.74 234.264ZM207.008 222.648V224.452H204.72V231.272C204.72 231.609 204.815 231.859 205.006 232.02C205.211 232.167 205.549 232.24 206.018 232.24H207.008V234C206.524 234.044 206.077 234.066 205.666 234.066C204.595 234.066 203.803 233.861 203.29 233.45C202.777 233.039 202.52 232.379 202.52 231.47V224.452H200.694V222.648H202.52V219.392H204.72V222.648H207.008ZM211.434 221.042H209.19V218.688H211.434V221.042ZM211.412 234H209.212V222.648H211.412V234ZM220.345 226.806L221.863 222.648H224.195L219.839 234H217.397L213.063 222.648H215.439L216.979 226.806C218.02 229.901 218.578 231.587 218.651 231.866C218.695 231.719 218.79 231.426 218.937 230.986C219.084 230.546 219.289 229.945 219.553 229.182C219.817 228.405 220.081 227.613 220.345 226.806ZM235.577 228.412V229.05H227.019C227.121 230.165 227.451 231.008 228.009 231.58C228.566 232.137 229.321 232.416 230.275 232.416C231.712 232.416 232.651 231.785 233.091 230.524H235.313C235.005 231.683 234.403 232.599 233.509 233.274C232.629 233.934 231.536 234.264 230.231 234.264C228.603 234.264 227.29 233.721 226.293 232.636C225.295 231.551 224.797 230.113 224.797 228.324C224.797 226.535 225.295 225.097 226.293 224.012C227.29 222.927 228.588 222.384 230.187 222.384C231.859 222.384 233.179 222.949 234.147 224.078C235.1 225.207 235.577 226.652 235.577 228.412ZM230.187 224.232C229.321 224.232 228.61 224.496 228.053 225.024C227.51 225.552 227.173 226.315 227.041 227.312H233.311C233.208 226.388 232.878 225.647 232.321 225.09C231.778 224.518 231.067 224.232 230.187 224.232ZM151.684 242.336V255.888H159.362V258H149.33V242.336H151.684ZM170.07 256.636C169.028 257.721 167.672 258.264 166 258.264C164.328 258.264 162.971 257.721 161.93 256.636C160.888 255.551 160.368 254.113 160.368 252.324C160.368 250.52 160.888 249.075 161.93 247.99C162.956 246.919 164.313 246.384 166 246.384C167.686 246.384 169.043 246.919 170.07 247.99C171.096 249.061 171.61 250.505 171.61 252.324C171.61 254.128 171.096 255.565 170.07 256.636ZM163.558 255.294C164.159 256.013 164.973 256.372 166 256.372C167.026 256.372 167.833 256.013 168.42 255.294C169.021 254.575 169.322 253.585 169.322 252.324C169.322 251.063 169.021 250.073 168.42 249.354C167.833 248.635 167.026 248.276 166 248.276C164.973 248.276 164.159 248.635 163.558 249.354C162.956 250.073 162.656 251.063 162.656 252.324C162.656 253.585 162.956 254.575 163.558 255.294ZM183.586 256.306H184.202V258C183.879 258.044 183.52 258.066 183.124 258.066C182.42 258.066 181.892 257.941 181.54 257.692C181.203 257.428 180.997 257.017 180.924 256.46C180.161 257.663 178.929 258.264 177.228 258.264C175.981 258.264 174.991 257.971 174.258 257.384C173.539 256.783 173.18 255.954 173.18 254.898C173.18 252.845 174.603 251.671 177.448 251.378L179.12 251.202C179.707 251.129 180.132 250.982 180.396 250.762C180.675 250.527 180.814 250.197 180.814 249.772C180.814 249.2 180.631 248.789 180.264 248.54C179.912 248.276 179.318 248.144 178.482 248.144C177.573 248.144 176.92 248.298 176.524 248.606C176.128 248.899 175.901 249.427 175.842 250.19H173.664C173.825 247.653 175.431 246.384 178.482 246.384C181.474 246.384 182.97 247.499 182.97 249.728V255.734C182.97 256.115 183.175 256.306 183.586 256.306ZM177.558 256.548C178.497 256.548 179.274 256.284 179.89 255.756C180.506 255.228 180.814 254.48 180.814 253.512V252.324C180.535 252.559 180.066 252.713 179.406 252.786L177.822 252.962C176.971 253.065 176.363 253.27 175.996 253.578C175.629 253.871 175.446 254.289 175.446 254.832C175.446 255.375 175.622 255.8 175.974 256.108C176.341 256.401 176.869 256.548 177.558 256.548ZM191.772 246.384C193.018 246.384 193.994 246.736 194.698 247.44C195.402 248.129 195.754 249.112 195.754 250.388V258H193.554V250.696C193.554 249.112 192.754 248.32 191.156 248.32C190.422 248.32 189.762 248.599 189.176 249.156C188.589 249.728 188.296 250.542 188.296 251.598V258H186.096V246.648H188.208V248.342C189.073 247.037 190.261 246.384 191.772 246.384ZM202.877 258.286C199.723 258.286 198.066 256.988 197.905 254.392H200.105C200.193 255.184 200.449 255.741 200.875 256.064C201.3 256.387 201.975 256.548 202.899 256.548C204.571 256.548 205.407 256.02 205.407 254.964C205.407 254.509 205.231 254.157 204.879 253.908C204.527 253.659 203.896 253.453 202.987 253.292L201.821 253.072C199.415 252.632 198.213 251.503 198.213 249.684C198.213 248.672 198.601 247.873 199.379 247.286C200.156 246.685 201.227 246.384 202.591 246.384C205.715 246.384 207.313 247.653 207.387 250.19H205.253C205.209 249.427 204.974 248.892 204.549 248.584C204.123 248.261 203.471 248.1 202.591 248.1C201.887 248.1 201.344 248.232 200.963 248.496C200.581 248.76 200.391 249.134 200.391 249.618C200.391 250.058 200.559 250.403 200.897 250.652C201.234 250.887 201.769 251.077 202.503 251.224L203.691 251.422C205.084 251.686 206.089 252.082 206.705 252.61C207.321 253.138 207.629 253.871 207.629 254.81C207.629 255.91 207.211 256.768 206.375 257.384C205.539 257.985 204.373 258.286 202.877 258.286Z" fill="white"/>
</g>
<defs>
<filter id="filter1_f_449_5249" x="-323.2" y="-282.2" width="677.4" height="677.4" filterUnits="userSpaceOnUse" color-interpolation-filters="sRGB">
<feFlood flood-opacity="0" result="BackgroundImageFix"/>
<feBlend mode="normal" in="SourceGraphic" in2="BackgroundImageFix" result="shape"/>
<feGaussianBlur stdDeviation="73.6" result="effect1_foregroundBlur_449_5249"/>
</filter>
<clipPath id="clip0_449_5249">
<rect width="354" height="354" rx="177" fill="white"/>
</clipPath>
</defs>
</svg>
