<svg width="863" height="731" viewBox="0 0 863 731" fill="none" xmlns="http://www.w3.org/2000/svg">
<circle cx="431.5" cy="431.5" r="419.427" stroke="white" stroke-width="2.14666" stroke-dasharray="15.03 15.03"/>
<g filter="url(#filter0_f_449_5237)">
<circle cx="431.5" cy="431.5" r="419.427" stroke="white" stroke-width="2.14666" stroke-dasharray="15.03 15.03"/>
</g>
<path d="M358.77 401.26C369.266 405.36 374.514 412.658 374.514 423.154C374.514 431.354 371.521 437.832 365.535 442.588C359.549 447.508 351.595 449.968 341.673 449.968C331.751 449.968 323.797 447.508 317.811 442.588C311.825 437.832 308.832 431.354 308.832 423.154C308.832 412.658 314.08 405.36 324.576 401.26C316.458 397.324 312.399 391.092 312.399 382.564C312.399 375.02 315.146 369.116 320.64 364.852C325.97 360.588 332.981 358.456 341.673 358.456C350.283 358.456 357.335 360.588 362.829 364.852C368.241 369.116 370.947 375.02 370.947 382.564C370.947 391.092 366.888 397.324 358.77 401.26ZM358.524 382.933C358.524 378.587 356.966 375.225 353.85 372.847C350.734 370.469 346.675 369.28 341.673 369.28C336.671 369.28 332.612 370.469 329.496 372.847C326.38 375.225 324.822 378.587 324.822 382.933C324.822 387.279 326.38 390.641 329.496 393.019C332.612 395.397 336.671 396.586 341.673 396.586C346.675 396.586 350.734 395.397 353.85 393.019C356.966 390.641 358.524 387.279 358.524 382.933ZM327.405 434.593C330.931 437.463 335.687 438.898 341.673 438.898C347.659 438.898 352.415 437.463 355.941 434.593C359.385 431.723 361.107 427.746 361.107 422.662C361.107 417.578 359.385 413.642 355.941 410.854C352.497 407.984 347.741 406.549 341.673 406.549C335.523 406.549 330.726 407.984 327.282 410.854C323.838 413.642 322.116 417.578 322.116 422.662C322.116 427.828 323.879 431.805 327.405 434.593ZM414.977 390.682C424.325 390.682 431.664 393.47 436.994 399.046C442.242 404.54 444.866 411.551 444.866 420.079C444.866 428.935 441.996 436.11 436.256 441.604C430.434 447.18 422.808 449.968 413.378 449.968C404.768 449.968 397.593 447.549 391.853 442.711C386.277 437.955 383.161 431.518 382.505 423.4H395.297C395.871 428.074 397.798 431.805 401.078 434.593C404.44 437.381 408.54 438.775 413.378 438.775C418.79 438.775 423.177 437.053 426.539 433.609C429.983 430.083 431.705 425.573 431.705 420.079C431.705 414.503 429.983 409.993 426.539 406.549C423.177 403.023 418.79 401.26 413.378 401.26C405.506 401.26 399.889 404.54 396.527 411.1H384.473L392.222 360.424H439.823V371.863H402.554L398.618 396.955C403.292 392.773 408.745 390.682 414.977 390.682ZM487.31 405.319C483.702 409.993 478.495 412.33 471.689 412.33C464.883 412.33 459.676 409.993 456.068 405.319C452.46 400.563 450.656 394.085 450.656 385.885C450.656 377.439 452.46 370.92 456.068 366.328C459.676 361.654 464.883 359.317 471.689 359.317C478.495 359.317 483.661 361.654 487.187 366.328C490.795 370.92 492.599 377.439 492.599 385.885C492.599 394.249 490.836 400.727 487.31 405.319ZM484.973 448H474.764L521.504 360.424H531.713L484.973 448ZM461.357 385.885C461.357 397.775 464.801 403.72 471.689 403.72C478.577 403.72 482.021 397.775 482.021 385.885C482.021 373.913 478.577 367.927 471.689 367.927C464.801 367.927 461.357 373.913 461.357 385.885ZM550.409 442.096C546.883 446.77 541.676 449.107 534.788 449.107C527.9 449.107 522.693 446.77 519.167 442.096C515.559 437.34 513.755 430.862 513.755 422.662C513.755 414.216 515.559 407.697 519.167 403.105C522.775 398.431 527.982 396.094 534.788 396.094C541.594 396.094 546.76 398.431 550.286 403.105C553.894 407.697 555.698 414.216 555.698 422.662C555.698 431.026 553.935 437.504 550.409 442.096ZM534.788 440.497C541.676 440.497 545.12 434.552 545.12 422.662C545.12 410.69 541.676 404.704 534.788 404.704C527.818 404.704 524.333 410.69 524.333 422.662C524.333 434.552 527.818 440.497 534.788 440.497Z" fill="white"/>
<path d="M360.431 510.162H357.154L355.124 504.797H345.844L343.843 510.162H340.624L348.686 489.514H352.253L360.431 510.162ZM347.265 500.969L346.83 502.1H354.109L353.674 500.969C352.649 498.417 351.576 495.594 350.455 492.501C349.121 496.058 348.057 498.881 347.265 500.969ZM368.81 500.679L370.811 495.198H373.885L368.143 510.162H364.924L359.211 495.198H362.343L364.373 500.679C365.745 504.758 366.48 506.981 366.577 507.349C366.635 507.155 366.76 506.769 366.954 506.189C367.147 505.609 367.418 504.816 367.766 503.811C368.114 502.786 368.462 501.742 368.81 500.679ZM388.888 502.796V503.637H377.607C377.742 505.106 378.177 506.218 378.912 506.972C379.646 507.706 380.642 508.074 381.899 508.074C383.793 508.074 385.031 507.242 385.611 505.58H388.54C388.134 507.107 387.341 508.315 386.162 509.205C385.002 510.075 383.561 510.51 381.841 510.51C379.695 510.51 377.964 509.794 376.65 508.364C375.335 506.933 374.678 505.038 374.678 502.68C374.678 500.321 375.335 498.426 376.65 496.996C377.964 495.565 379.675 494.85 381.783 494.85C383.987 494.85 385.727 495.594 387.003 497.083C388.259 498.571 388.888 500.476 388.888 502.796ZM381.783 497.286C380.642 497.286 379.704 497.634 378.97 498.33C378.254 499.026 377.81 500.031 377.636 501.346H385.901C385.765 500.128 385.33 499.151 384.596 498.417C383.88 497.663 382.943 497.286 381.783 497.286ZM399.493 494.966C399.918 494.966 400.198 494.975 400.334 494.995V497.75H399.609C398.12 497.75 396.97 498.117 396.158 498.852C395.346 499.586 394.94 500.65 394.94 502.042V510.162H392.04V495.198H394.824V497.866C395.771 495.932 397.327 494.966 399.493 494.966ZM414.926 507.929H415.738V510.162C415.313 510.22 414.839 510.249 414.317 510.249C413.389 510.249 412.693 510.084 412.229 509.756C411.785 509.408 411.514 508.866 411.417 508.132C410.412 509.717 408.788 510.51 406.545 510.51C404.902 510.51 403.597 510.123 402.63 509.35C401.683 508.557 401.209 507.465 401.209 506.073C401.209 503.366 403.085 501.819 406.835 501.433L409.039 501.201C409.813 501.104 410.373 500.911 410.721 500.621C411.089 500.311 411.272 499.876 411.272 499.316C411.272 498.562 411.031 498.02 410.547 497.692C410.083 497.344 409.3 497.17 408.198 497.17C407 497.17 406.139 497.373 405.617 497.779C405.095 498.165 404.796 498.861 404.718 499.867H401.847C402.06 496.522 404.177 494.85 408.198 494.85C412.142 494.85 414.114 496.319 414.114 499.258V507.175C414.114 507.677 414.385 507.929 414.926 507.929ZM406.98 508.248C408.218 508.248 409.242 507.9 410.054 507.204C410.866 506.508 411.272 505.522 411.272 504.246V502.68C410.905 502.989 410.286 503.192 409.416 503.289L407.328 503.521C406.207 503.656 405.405 503.927 404.921 504.333C404.438 504.719 404.196 505.27 404.196 505.986C404.196 506.701 404.428 507.262 404.892 507.668C405.376 508.054 406.072 508.248 406.98 508.248ZM429.059 497.315V495.198H431.843V509.611C431.843 511.66 431.224 513.265 429.987 514.425C428.749 515.604 426.99 516.194 424.709 516.194C422.756 516.194 421.2 515.749 420.04 514.86C418.899 513.97 418.251 512.752 418.097 511.206H420.997C421.229 512.965 422.476 513.845 424.738 513.845C427.541 513.845 428.943 512.453 428.943 509.669V508.016C427.802 509.562 426.197 510.336 424.129 510.336C422.041 510.336 420.378 509.63 419.141 508.219C417.884 506.788 417.256 504.913 417.256 502.593C417.256 500.273 417.884 498.397 419.141 496.967C420.378 495.555 422.031 494.85 424.1 494.85C426.284 494.85 427.937 495.671 429.059 497.315ZM424.651 507.842C426.004 507.842 427.067 507.378 427.841 506.45C428.633 505.502 429.03 504.217 429.03 502.593C429.03 500.969 428.633 499.693 427.841 498.765C427.067 497.817 426.004 497.344 424.651 497.344C423.317 497.344 422.253 497.817 421.461 498.765C420.668 499.712 420.272 500.988 420.272 502.593C420.272 504.217 420.668 505.502 421.461 506.45C422.253 507.378 423.317 507.842 424.651 507.842ZM449.208 502.796V503.637H437.927C438.062 505.106 438.497 506.218 439.232 506.972C439.966 507.706 440.962 508.074 442.219 508.074C444.113 508.074 445.351 507.242 445.931 505.58H448.86C448.454 507.107 447.661 508.315 446.482 509.205C445.322 510.075 443.881 510.51 442.161 510.51C440.015 510.51 438.284 509.794 436.97 508.364C435.655 506.933 434.998 505.038 434.998 502.68C434.998 500.321 435.655 498.426 436.97 496.996C438.284 495.565 439.995 494.85 442.103 494.85C444.307 494.85 446.047 495.594 447.323 497.083C448.579 498.571 449.208 500.476 449.208 502.796ZM442.103 497.286C440.962 497.286 440.024 497.634 439.29 498.33C438.574 499.026 438.13 500.031 437.956 501.346H446.221C446.085 500.128 445.65 499.151 444.916 498.417C444.2 497.663 443.263 497.286 442.103 497.286ZM470.141 493.835L472.809 489.514H476.26L468.43 501.926V510.162H465.356V501.926L457.497 489.514H461.006L463.732 493.864C464.041 494.366 464.554 495.188 465.269 496.329C465.462 496.638 465.675 496.996 465.907 497.402C466.158 497.808 466.361 498.156 466.516 498.446C466.69 498.716 466.835 498.948 466.951 499.142C467.937 497.421 469 495.652 470.141 493.835ZM480.946 493.081H477.988V489.978H480.946V493.081ZM480.917 510.162H478.017V495.198H480.917V510.162ZM498.256 502.796V503.637H486.975C487.111 505.106 487.546 506.218 488.28 506.972C489.015 507.706 490.011 508.074 491.267 508.074C493.162 508.074 494.399 507.242 494.979 505.58H497.908C497.502 507.107 496.71 508.315 495.53 509.205C494.37 510.075 492.93 510.51 491.209 510.51C489.063 510.51 487.333 509.794 486.018 508.364C484.704 506.933 484.046 505.038 484.046 502.68C484.046 500.321 484.704 498.426 486.018 496.996C487.333 495.565 489.044 494.85 491.151 494.85C493.355 494.85 495.095 495.594 496.371 497.083C497.628 498.571 498.256 500.476 498.256 502.796ZM491.151 497.286C490.011 497.286 489.073 497.634 488.338 498.33C487.623 499.026 487.178 500.031 487.004 501.346H495.269C495.134 500.128 494.699 499.151 493.964 498.417C493.249 497.663 492.311 497.286 491.151 497.286ZM504.308 510.162H501.408V489.514H504.308V510.162ZM519.125 497.228V489.514H522.025V510.162H519.241V507.958C518.119 509.659 516.466 510.51 514.282 510.51C512.194 510.51 510.531 509.804 509.294 508.393C508.056 506.981 507.438 505.077 507.438 502.68C507.438 500.282 508.056 498.378 509.294 496.967C510.531 495.555 512.194 494.85 514.282 494.85C516.389 494.85 518.003 495.642 519.125 497.228ZM510.454 502.796C510.454 504.458 510.85 505.744 511.643 506.653C512.435 507.561 513.499 508.016 514.833 508.016C516.205 508.016 517.278 507.542 518.052 506.595C518.825 505.686 519.212 504.381 519.212 502.68C519.212 500.998 518.825 499.683 518.052 498.736C517.278 497.808 516.205 497.344 514.833 497.344C513.499 497.344 512.435 497.827 511.643 498.794C510.85 499.76 510.454 501.094 510.454 502.796Z" fill="white"/>
<defs>
<filter id="filter0_f_449_5237" x="0" y="0" width="863" height="863" filterUnits="userSpaceOnUse" color-interpolation-filters="sRGB">
<feFlood flood-opacity="0" result="BackgroundImageFix"/>
<feBlend mode="normal" in="SourceGraphic" in2="BackgroundImageFix" result="shape"/>
<feGaussianBlur stdDeviation="5.5" result="effect1_foregroundBlur_449_5237"/>
</filter>
</defs>
</svg>
