<svg width="29" height="29" viewBox="0 0 29 29" fill="none" xmlns="http://www.w3.org/2000/svg">
<g clip-path="url(#clip0_956_83)">
<g clip-path="url(#clip1_956_83)">
<g clip-path="url(#clip2_956_83)">
<path d="M14.1639 28.3278C21.9864 28.3278 28.3278 21.9864 28.3278 14.1639C28.3278 6.3414 21.9864 0 14.1639 0C6.3414 0 0 6.3414 0 14.1639C0 21.9864 6.3414 28.3278 14.1639 28.3278Z" fill="white"/>
<path d="M14.0508 6.05335V17.2919L14.1648 17.4057L19.3815 14.322L14.1648 5.66602L14.0508 6.05335Z" fill="#343434"/>
<path d="M14.1622 11.9508V5.66602L8.94531 14.322L14.1622 17.4057V11.9508Z" fill="#8C8C8C"/>
<path d="M14.0996 18.4729V22.4763L14.1639 22.6639L19.3838 15.3125L14.1639 18.3945L14.0996 18.4729Z" fill="#3C3C3B"/>
<path d="M14.1622 18.3945L8.94531 15.3125L14.1622 22.6639V18.3945Z" fill="#8C8C8C"/>
<path d="M19.3808 14.3224L14.1641 11.9512V17.4061L19.3808 14.3224Z" fill="#141414"/>
<path d="M14.1622 17.4061V11.9512L8.94531 14.3224L14.1622 17.4061Z" fill="#393939"/>
</g>
</g>
</g>
<defs>
<clipPath id="clip0_956_83">
<rect width="28.3278" height="28.3278" rx="14.1639" fill="white"/>
</clipPath>
<clipPath id="clip1_956_83">
<rect width="28.3278" height="28.3278" fill="white"/>
</clipPath>
<clipPath id="clip2_956_83">
<rect width="28.3278" height="28.3278" fill="white"/>
</clipPath>
</defs>
</svg>
