<svg width="285" height="286" viewBox="0 0 285 286" fill="none" xmlns="http://www.w3.org/2000/svg">
<path d="M142.4 19.4731C210.286 19.4731 265.327 74.7292 265.327 142.9C265.327 211.071 210.286 266.327 142.4 266.327C74.5134 266.327 19.4731 211.071 19.4731 142.9C19.4731 74.7292 74.5134 19.4731 142.4 19.4731Z" stroke="white" stroke-width="2.14666"/>
<g filter="url(#filter0_f_449_5243)">
<path d="M142.4 19.4731C210.286 19.4731 265.327 74.7292 265.327 142.9C265.327 211.071 210.286 266.327 142.4 266.327C74.5134 266.327 19.4731 211.071 19.4731 142.9C19.4731 74.7292 74.5134 19.4731 142.4 19.4731Z" stroke="white" stroke-width="2.14666"/>
</g>
<path d="M110.061 148.774H140.565V156.4H100.221L100.467 152.71C100.685 148.719 101.587 144.893 103.173 141.23C104.977 137.021 108.694 133.467 114.325 130.57L120.967 126.88C124.465 125.021 126.98 123.135 128.511 121.222C130.041 119.254 130.807 116.876 130.807 114.088C130.807 111.081 129.85 108.703 127.937 106.954C126.078 105.205 123.481 104.33 120.147 104.33C112.657 104.33 108.913 108.239 108.913 116.056H100.303C100.248 109.933 101.97 105.177 105.469 101.788C108.967 98.3986 113.942 96.7039 120.393 96.7039C126.297 96.7039 130.998 98.2892 134.497 101.46C138.05 104.685 139.827 108.785 139.827 113.76C139.827 117.86 138.679 121.468 136.383 124.584C134.087 127.7 130.479 130.57 125.559 133.194L119.737 136.474C116.402 138.333 113.997 140.164 112.521 141.968C111.099 143.772 110.279 146.041 110.061 148.774ZM166.158 118.188C172.39 118.188 177.282 120.047 180.836 123.764C184.334 127.427 186.084 132.101 186.084 137.786C186.084 143.69 184.17 148.473 180.344 152.136C176.462 155.853 171.378 157.712 165.092 157.712C159.352 157.712 154.568 156.099 150.742 152.874C147.024 149.703 144.947 145.412 144.51 140H153.038C153.42 143.116 154.705 145.603 156.892 147.462C159.133 149.321 161.866 150.25 165.092 150.25C168.7 150.25 171.624 149.102 173.866 146.806C176.162 144.455 177.31 141.449 177.31 137.786C177.31 134.069 176.162 131.062 173.866 128.766C171.624 126.415 168.7 125.24 165.092 125.24C159.844 125.24 156.099 127.427 153.858 131.8H145.822L150.988 98.0159H182.722V105.642H157.876L155.252 122.37C158.368 119.582 162.003 118.188 166.158 118.188Z" fill="white"/>
<path d="M93.9123 173.887H103.208V175.423H99.4323V185.279H97.6883V175.423H93.9123V173.887ZM109.59 184.287C108.833 185.076 107.846 185.471 106.63 185.471C105.414 185.471 104.428 185.076 103.67 184.287C102.913 183.497 102.534 182.452 102.534 181.151C102.534 179.839 102.913 178.788 103.67 177.999C104.417 177.22 105.404 176.831 106.63 176.831C107.857 176.831 108.844 177.22 109.59 177.999C110.337 178.777 110.71 179.828 110.71 181.151C110.71 182.463 110.337 183.508 109.59 184.287ZM104.854 183.311C105.292 183.833 105.884 184.095 106.63 184.095C107.377 184.095 107.964 183.833 108.39 183.311C108.828 182.788 109.046 182.068 109.046 181.151C109.046 180.233 108.828 179.513 108.39 178.991C107.964 178.468 107.377 178.207 106.63 178.207C105.884 178.207 105.292 178.468 104.854 178.991C104.417 179.513 104.198 180.233 104.198 181.151C104.198 182.068 104.417 182.788 104.854 183.311ZM115.908 177.023V178.335H114.244V183.295C114.244 183.54 114.314 183.721 114.452 183.839C114.602 183.945 114.847 183.999 115.188 183.999H115.908V185.279C115.556 185.311 115.231 185.327 114.932 185.327C114.154 185.327 113.578 185.177 113.204 184.879C112.831 184.58 112.644 184.1 112.644 183.439V178.335H111.316V177.023H112.644V174.655H114.244V177.023H115.908ZM124.553 184.047H125.001V185.279C124.766 185.311 124.505 185.327 124.217 185.327C123.705 185.327 123.321 185.236 123.065 185.055C122.82 184.863 122.67 184.564 122.617 184.159C122.062 185.033 121.166 185.471 119.929 185.471C119.022 185.471 118.302 185.257 117.769 184.831C117.246 184.393 116.985 183.791 116.985 183.023C116.985 181.529 118.02 180.676 120.089 180.463L121.305 180.335C121.732 180.281 122.041 180.175 122.233 180.015C122.436 179.844 122.537 179.604 122.537 179.295C122.537 178.879 122.404 178.58 122.137 178.399C121.881 178.207 121.449 178.111 120.841 178.111C120.18 178.111 119.705 178.223 119.417 178.447C119.129 178.66 118.964 179.044 118.921 179.599H117.337C117.454 177.753 118.622 176.831 120.841 176.831C123.017 176.831 124.105 177.641 124.105 179.263V183.631C124.105 183.908 124.254 184.047 124.553 184.047ZM120.169 184.223C120.852 184.223 121.417 184.031 121.865 183.647C122.313 183.263 122.537 182.719 122.537 182.015V181.151C122.334 181.321 121.993 181.433 121.513 181.487L120.361 181.615C119.742 181.689 119.3 181.839 119.033 182.063C118.766 182.276 118.633 182.58 118.633 182.975C118.633 183.369 118.761 183.679 119.017 183.903C119.284 184.116 119.668 184.223 120.169 184.223ZM127.916 185.279H126.316V173.887H127.916V185.279ZM141.325 177.343V173.887H142.973V185.279H141.005L137.501 179.759C136.477 178.159 135.736 176.937 135.277 176.095C135.32 177.364 135.341 179.273 135.341 181.823V185.279H133.677V173.887H135.645L139.165 179.407C140.114 180.911 140.856 182.137 141.389 183.087C141.346 181.807 141.325 179.892 141.325 177.343ZM150.528 181.679V177.023H152.128V185.279H150.592V184.047C149.963 184.996 149.099 185.471 148 185.471C147.093 185.471 146.384 185.215 145.872 184.703C145.36 184.191 145.104 183.476 145.104 182.559V177.023H146.704V182.335C146.704 183.487 147.285 184.063 148.448 184.063C149.035 184.063 149.525 183.855 149.92 183.439C150.325 183.012 150.528 182.425 150.528 181.679ZM163.276 176.831C164.172 176.831 164.871 177.097 165.372 177.631C165.873 178.153 166.124 178.857 166.124 179.743V185.279H164.508V179.951C164.508 178.809 163.98 178.239 162.924 178.239C162.359 178.239 161.895 178.457 161.532 178.895C161.169 179.321 160.988 179.94 160.988 180.751V185.279H159.388V179.951C159.388 178.809 158.855 178.239 157.788 178.239C157.223 178.239 156.759 178.457 156.396 178.895C156.033 179.332 155.852 179.951 155.852 180.751V185.279H154.252V177.023H155.788V178.255C156.353 177.305 157.148 176.831 158.172 176.831C159.42 176.831 160.268 177.348 160.716 178.383C161.303 177.348 162.156 176.831 163.276 176.831ZM172.516 176.831C173.668 176.831 174.586 177.22 175.268 177.999C175.951 178.777 176.292 179.828 176.292 181.151C176.292 182.463 175.951 183.508 175.268 184.287C174.575 185.076 173.658 185.471 172.516 185.471C171.3 185.471 170.383 184.991 169.764 184.031V185.279H168.228V173.887H169.828V178.175C170.447 177.279 171.343 176.831 172.516 176.831ZM170.452 183.311C170.879 183.833 171.466 184.095 172.212 184.095C172.959 184.095 173.551 183.828 173.988 183.295C174.415 182.772 174.628 182.036 174.628 181.087C174.628 180.169 174.415 179.46 173.988 178.959C173.562 178.457 172.97 178.207 172.212 178.207C171.476 178.207 170.89 178.463 170.452 178.975C170.015 179.508 169.796 180.233 169.796 181.151C169.796 182.068 170.015 182.788 170.452 183.311ZM185.473 181.215V181.679H179.249C179.324 182.489 179.564 183.103 179.969 183.519C180.374 183.924 180.924 184.127 181.617 184.127C182.662 184.127 183.345 183.668 183.665 182.751H185.281C185.057 183.593 184.62 184.26 183.969 184.751C183.329 185.231 182.534 185.471 181.585 185.471C180.401 185.471 179.446 185.076 178.721 184.287C177.996 183.497 177.633 182.452 177.633 181.151C177.633 179.849 177.996 178.804 178.721 178.015C179.446 177.225 180.39 176.831 181.553 176.831C182.769 176.831 183.729 177.241 184.433 178.063C185.126 178.884 185.473 179.935 185.473 181.215ZM181.553 178.175C180.924 178.175 180.406 178.367 180.001 178.751C179.606 179.135 179.361 179.689 179.265 180.415H183.825C183.75 179.743 183.51 179.204 183.105 178.799C182.71 178.383 182.193 178.175 181.553 178.175ZM191.324 176.895C191.559 176.895 191.713 176.9 191.788 176.911V178.431H191.388C190.567 178.431 189.932 178.633 189.484 179.039C189.036 179.444 188.812 180.031 188.812 180.799V185.279H187.212V177.023H188.748V178.495C189.271 177.428 190.129 176.895 191.324 176.895ZM119.418 201.287C118.661 202.076 117.674 202.471 116.458 202.471C115.242 202.471 114.256 202.076 113.498 201.287C112.741 200.497 112.362 199.452 112.362 198.151C112.362 196.839 112.741 195.788 113.498 194.999C114.245 194.22 115.232 193.831 116.458 193.831C117.685 193.831 118.672 194.22 119.418 194.999C120.165 195.777 120.538 196.828 120.538 198.151C120.538 199.463 120.165 200.508 119.418 201.287ZM114.682 200.311C115.12 200.833 115.712 201.095 116.458 201.095C117.205 201.095 117.792 200.833 118.218 200.311C118.656 199.788 118.874 199.068 118.874 198.151C118.874 197.233 118.656 196.513 118.218 195.991C117.792 195.468 117.205 195.207 116.458 195.207C115.712 195.207 115.12 195.468 114.682 195.991C114.245 196.513 114.026 197.233 114.026 198.151C114.026 199.068 114.245 199.788 114.682 200.311ZM126.005 192.183H125.285C124.57 192.183 124.213 192.545 124.213 193.271V194.023H125.941V195.335H124.213V202.279H122.613V195.335H121.285V194.023H122.613V193.271C122.613 191.649 123.44 190.839 125.093 190.839C125.253 190.839 125.557 190.855 126.005 190.887V192.183ZM132.967 190.887V200.743H138.551V202.279H131.255V190.887H132.967ZM146.339 201.287C145.582 202.076 144.595 202.471 143.379 202.471C142.163 202.471 141.176 202.076 140.419 201.287C139.662 200.497 139.283 199.452 139.283 198.151C139.283 196.839 139.662 195.788 140.419 194.999C141.166 194.22 142.152 193.831 143.379 193.831C144.606 193.831 145.592 194.22 146.339 194.999C147.086 195.777 147.459 196.828 147.459 198.151C147.459 199.463 147.086 200.508 146.339 201.287ZM141.603 200.311C142.04 200.833 142.632 201.095 143.379 201.095C144.126 201.095 144.712 200.833 145.139 200.311C145.576 199.788 145.795 199.068 145.795 198.151C145.795 197.233 145.576 196.513 145.139 195.991C144.712 195.468 144.126 195.207 143.379 195.207C142.632 195.207 142.04 195.468 141.603 195.991C141.166 196.513 140.947 197.233 140.947 198.151C140.947 199.068 141.166 199.788 141.603 200.311ZM156.169 201.047H156.617V202.279C156.382 202.311 156.121 202.327 155.833 202.327C155.321 202.327 154.937 202.236 154.681 202.055C154.436 201.863 154.286 201.564 154.233 201.159C153.678 202.033 152.782 202.471 151.545 202.471C150.638 202.471 149.918 202.257 149.385 201.831C148.862 201.393 148.601 200.791 148.601 200.023C148.601 198.529 149.636 197.676 151.705 197.463L152.921 197.335C153.348 197.281 153.657 197.175 153.849 197.015C154.052 196.844 154.153 196.604 154.153 196.295C154.153 195.879 154.02 195.58 153.753 195.399C153.497 195.207 153.065 195.111 152.457 195.111C151.796 195.111 151.321 195.223 151.033 195.447C150.745 195.66 150.58 196.044 150.537 196.599H148.953C149.07 194.753 150.238 193.831 152.457 193.831C154.633 193.831 155.721 194.641 155.721 196.263V200.631C155.721 200.908 155.87 201.047 156.169 201.047ZM151.785 201.223C152.468 201.223 153.033 201.031 153.481 200.647C153.929 200.263 154.153 199.719 154.153 199.015V198.151C153.95 198.321 153.609 198.433 153.129 198.487L151.977 198.615C151.358 198.689 150.916 198.839 150.649 199.063C150.382 199.276 150.249 199.58 150.249 199.975C150.249 200.369 150.377 200.679 150.633 200.903C150.9 201.116 151.284 201.223 151.785 201.223ZM162.122 193.831C163.029 193.831 163.738 194.087 164.25 194.599C164.762 195.1 165.018 195.815 165.018 196.743V202.279H163.418V196.967C163.418 195.815 162.837 195.239 161.674 195.239C161.141 195.239 160.661 195.441 160.234 195.847C159.808 196.263 159.594 196.855 159.594 197.623V202.279H157.994V194.023H159.53V195.255C160.16 194.305 161.024 193.831 162.122 193.831ZM170.198 202.487C167.905 202.487 166.7 201.543 166.582 199.655H168.182C168.246 200.231 168.433 200.636 168.742 200.871C169.052 201.105 169.542 201.223 170.214 201.223C171.43 201.223 172.038 200.839 172.038 200.071C172.038 199.74 171.91 199.484 171.654 199.303C171.398 199.121 170.94 198.972 170.278 198.855L169.43 198.695C167.681 198.375 166.806 197.553 166.806 196.231C166.806 195.495 167.089 194.913 167.654 194.487C168.22 194.049 168.998 193.831 169.99 193.831C172.262 193.831 173.425 194.753 173.478 196.599H171.926C171.894 196.044 171.724 195.655 171.414 195.431C171.105 195.196 170.63 195.079 169.99 195.079C169.478 195.079 169.084 195.175 168.806 195.367C168.529 195.559 168.39 195.831 168.39 196.183C168.39 196.503 168.513 196.753 168.758 196.935C169.004 197.105 169.393 197.244 169.926 197.351L170.79 197.495C171.804 197.687 172.534 197.975 172.982 198.359C173.43 198.743 173.654 199.276 173.654 199.959C173.654 200.759 173.35 201.383 172.742 201.831C172.134 202.268 171.286 202.487 170.198 202.487Z" fill="white"/>
<defs>
<filter id="filter0_f_449_5243" x="-9.72748e-05" y="-9.72748e-05" width="284.8" height="285.8" filterUnits="userSpaceOnUse" color-interpolation-filters="sRGB">
<feFlood flood-opacity="0" result="BackgroundImageFix"/>
<feBlend mode="normal" in="SourceGraphic" in2="BackgroundImageFix" result="shape"/>
<feGaussianBlur stdDeviation="9.2" result="effect1_foregroundBlur_449_5243"/>
</filter>
</defs>
</svg>
