<svg width="235" height="46" viewBox="0 0 235 46" fill="none" xmlns="http://www.w3.org/2000/svg">
<path d="M59.1157 0.592292V7.89077H51.8925V38.1546H58.8115C58.8749 38.1546 59.1917 38.1355 59.1917 38.1546V45.4913H85.6512L92.9884 37.8044L93.2291 8.07546L85.9046 0.592292H59.1093H59.1157ZM85.3534 37.7025H59.3501V8.35569L85.3534 8.43211V37.7025Z" fill="white"/>
<path d="M126.894 7.89714H106.327V15.2338H98.9079V37.7661L106.213 45.4977H126.856V37.7025L106.289 37.4732V30.767H134.466V15.3421L127.199 7.87804L126.894 7.89714ZM126.818 22.8762H106.289V15.6924H126.818V22.8762Z" fill="white"/>
<path d="M215.437 7.74429H193.793C193.761 7.74429 193.793 15.6924 193.793 15.6924H215.323V22.7934H187.387V37.9954H194.87V45.4977H215.513L223.04 37.9317V15.3485H215.437V7.74429ZM215.437 37.7088H194.908V30.5186H215.437V37.7088Z" fill="white"/>
<path d="M148.291 8.16463H181.898V0.407601H148.367L140.669 8.3111C140.669 8.3111 140.542 45.4977 140.669 45.4977H148.183V30.7542H174.187V22.9845H148.304V8.16463H148.291Z" fill="white"/>
<path d="M225.15 0H223.26V7.87543H225.15V0Z" fill="white"/>
<path d="M233.116 0H228.028L226.138 1.31476V7.882H228.028V1.89983H229.631V7.882H231.514V1.89983H233.116V7.882H235V1.31476L233.116 0Z" fill="white"/>
<path fill-rule="evenodd" clip-rule="evenodd" d="M25.8638 0.137444L33.2435 6.36857L33.2436 32.0312H25.8287L25.8288 37.8806H33.2436V45.9625H25.8288V37.8813L20.3298 37.8265V45.945L12.9139 46V37.8815L7.41481 37.8813V45.9625H0V37.8806H7.41481L7.41489 32.0312H0L8.17744e-05 6.36857L7.37973 0.137444H25.8638ZM7.37973 25.0146L12.9139 25.0521V7.13741L7.37973 7.09989V25.0146ZM20.3298 7.08243V24.9972L25.8638 25.0146V7.09989L20.3298 7.08243Z" fill="white"/>
</svg>
